<svg xmlns="http://www.w3.org/2000/svg" width="1200" height="800" viewBox="0 0 1200 800">
  <defs>
    <linearGradient id="sky" x1="0" y1="0" x2="0" y2="1">
      <stop offset="0" stop-color="#161A20"/>
      <stop offset="0.55" stop-color="#25303E"/>
      <stop offset="1" stop-color="#4A5A6E"/>
    </linearGradient>
    <radialGradient id="glow" cx="0.72" cy="0.38" r="0.5">
      <stop offset="0" stop-color="#D9A441" stop-opacity="0.55"/>
      <stop offset="1" stop-color="#D9A441" stop-opacity="0"/>
    </radialGradient>
    <filter id="grain">
      <feTurbulence type="fractalNoise" baseFrequency="0.9" numOctaves="2" seed="96" stitchTiles="stitch"/>
      <feColorMatrix type="matrix" values="0 0 0 0 0.93 0 0 0 0 0.9 0 0 0 0 0.85 0 0 0 0.06 0"/>
    </filter>
  </defs>
  <rect width="1200" height="800" fill="url(#sky)"/>
  <rect width="1200" height="800" fill="url(#glow)"/>
  <circle cx="864" cy="288" r="60" fill="#D9A441" opacity="0.85"/>
  <g fill="none" stroke="#EDE6DA" stroke-opacity="0.05" stroke-width="1.2"><ellipse cx="404" cy="310" rx="121" ry="91" transform="rotate(-4.6 404 310)"/><ellipse cx="404" cy="310" rx="182" ry="123" transform="rotate(8.1 404 310)"/><ellipse cx="404" cy="310" rx="232" ry="186" transform="rotate(-3.4 404 310)"/><ellipse cx="404" cy="310" rx="324" ry="213" transform="rotate(-0.2 404 310)"/><ellipse cx="404" cy="310" rx="426" ry="259" transform="rotate(-0.2 404 310)"/><ellipse cx="404" cy="310" rx="496" ry="327" transform="rotate(0.9 404 310)"/><ellipse cx="404" cy="310" rx="515" ry="392" transform="rotate(8.0 404 310)"/></g>
  <path d="M0 800 L0 416 L67 441 L133 441 L200 353 L267 353 L333 353 L400 353 L467 357 L533 357 L600 463 L667 463 L733 347 L800 370 L867 386 L933 386 L1000 369 L1067 369 L1133 353 L1200 353 L1200 800 Z" fill="#1E242C" opacity="0.9"/>
  <path d="M0 800 L0 528 L55 436 L109 494 L164 585 L218 514 L273 502 L327 502 L382 549 L436 549 L491 538 L545 521 L600 556 L655 556 L709 564 L764 564 L818 556 L873 556 L927 585 L982 520 L1036 570 L1091 570 L1145 540 L1200 540 L1200 800 Z" fill="#171C22"/>
  <path d="M0 800 L0 640 L46 647 L92 647 L138 663 L185 663 L231 669 L277 669 L323 666 L369 666 L415 632 L462 632 L508 644 L554 644 L600 630 L646 630 L692 611 L738 611 L785 670 L831 670 L877 666 L923 666 L969 647 L1015 647 L1062 677 L1108 677 L1154 676 L1200 661 L1200 800 Z" fill="#121519"/>
  <path d="M-20 600 C 300 550, 480 640, 744 570 S 1080 500, 1220 520" fill="none" stroke="#E8622C" stroke-width="3" stroke-dasharray="12 9" stroke-linecap="round" opacity="0.55"/>
  <rect width="1200" height="800" filter="url(#grain)"/>
</svg>
