<svg xmlns="http://www.w3.org/2000/svg" width="1200" height="800" viewBox="0 0 1200 800">
  <defs>
    <linearGradient id="sky" x1="0" y1="0" x2="0" y2="1">
      <stop offset="0" stop-color="#161A20"/>
      <stop offset="0.55" stop-color="#25303E"/>
      <stop offset="1" stop-color="#4A5A6E"/>
    </linearGradient>
    <radialGradient id="glow" cx="0.62" cy="0.29" r="0.5">
      <stop offset="0" stop-color="#D9A441" stop-opacity="0.55"/>
      <stop offset="1" stop-color="#D9A441" stop-opacity="0"/>
    </radialGradient>
    <filter id="grain">
      <feTurbulence type="fractalNoise" baseFrequency="0.9" numOctaves="2" seed="17" stitchTiles="stitch"/>
      <feColorMatrix type="matrix" values="0 0 0 0 0.93 0 0 0 0 0.9 0 0 0 0 0.85 0 0 0 0.06 0"/>
    </filter>
  </defs>
  <rect width="1200" height="800" fill="url(#sky)"/>
  <rect width="1200" height="800" fill="url(#glow)"/>
  <circle cx="742" cy="236" r="56" fill="#D9A441" opacity="0.85"/>
  <path d="M0,800 L0,560 L86,479 L171,398 L257,361 L343,340 L429,334 L514,281 L600,260 L686,332 L771,362 L857,393 L943,317 L1029,370 L1114,473 L1200,515 L1200,800 Z" fill="#3A4656" fill-opacity="0.9"/>
  <path d="M0,800 L0,640 L43,611 L86,570 L129,533 L171,500 L214,464 L257,468 L300,494 L343,450 L386,420 L429,444 L471,426 L514,398 L557,390 L600,380 L643,426 L686,443 L729,451 L771,469 L814,490 L857,495 L900,449 L943,429 L986,445 L1029,475 L1071,515 L1114,565 L1157,600 L1200,601 L1200,800 Z" fill="#2C3644" fill-opacity="0.95"/>
  <path d="M0,800 L0,720 L22,711 L44,695 L65,684 L87,661 L109,645 L131,629 L153,614 L175,601 L196,591 L218,571 L240,555 L262,574 L284,598 L305,596 L327,579 L349,559 L371,543 L393,534 L415,549 L436,555 L458,548 L480,539 L502,525 L524,515 L545,513 L567,509 L589,504 L611,500 L633,524 L655,539 L676,546 L698,553 L720,558 L742,560 L764,564 L785,575 L807,583 L829,593 L851,597 L873,597 L895,581 L916,558 L938,542 L960,542 L982,557 L1004,555 L1025,570 L1047,581 L1069,596 L1091,614 L1113,632 L1135,657 L1156,678 L1178,686 L1200,687 L1200,800 Z" fill="#1F2733" fill-opacity="1"/>
  <path d="M0,800 L0,800 L11,797 L22,792 L33,785 L44,779 L55,776 L66,769 L77,762 L88,749 L99,740 L110,735 L121,728 L132,722 L143,715 L154,709 L165,704 L176,697 L187,693 L198,689 L209,681 L220,671 L231,664 L242,657 L253,665 L264,674 L275,684 L286,695 L297,695 L308,693 L319,683 L330,678 L341,667 L352,661 L363,655 L374,647 L385,643 L396,639 L407,645 L418,652 L429,659 L440,657 L451,656 L462,651 L473,647 L484,644 L495,634 L506,632 L517,627 L528,623 L539,624 L550,621 L561,616 L572,617 L583,615 L594,614 L606,610 L617,610 L628,619 L639,631 L650,638 L661,644 L672,648 L683,650 L694,654 L705,656 L716,657 L727,660 L738,660 L749,662 L760,666 L771,666 L782,669 L793,675 L804,680 L815,681 L826,686 L837,690 L848,692 L859,693 L870,696 L881,694 L892,687 L903,680 L914,665 L925,660 L936,651 L947,646 L958,637 L969,646 L980,650 L991,659 L1002,657 L1013,657 L1024,660 L1035,670 L1046,675 L1057,680 L1068,686 L1079,693 L1090,700 L1101,709 L1112,716 L1123,724 L1134,734 L1145,745 L1156,758 L1167,764 L1178,764 L1189,771 L1200,771 L1200,800 Z" fill="#151B24" fill-opacity="1"/>
  <rect width="1200" height="800" filter="url(#grain)"/>
</svg>
