<svg xmlns="http://www.w3.org/2000/svg" width="1200" height="800" viewBox="0 0 1200 800">
  <defs>
    <linearGradient id="sky" x1="0" y1="0" x2="0" y2="1">
      <stop offset="0" stop-color="#161A20"/>
      <stop offset="0.55" stop-color="#25303E"/>
      <stop offset="1" stop-color="#4A5A6E"/>
    </linearGradient>
    <radialGradient id="glow" cx="0.50" cy="0.30" r="0.5">
      <stop offset="0" stop-color="#D9A441" stop-opacity="0.55"/>
      <stop offset="1" stop-color="#D9A441" stop-opacity="0"/>
    </radialGradient>
    <filter id="grain">
      <feTurbulence type="fractalNoise" baseFrequency="0.9" numOctaves="2" seed="12" stitchTiles="stitch"/>
      <feColorMatrix type="matrix" values="0 0 0 0 0.93 0 0 0 0 0.9 0 0 0 0 0.85 0 0 0 0.06 0"/>
    </filter>
  </defs>
  <rect width="1200" height="800" fill="url(#sky)"/>
  <rect width="1200" height="800" fill="url(#glow)"/>
  <circle cx="597" cy="242" r="56" fill="#D9A441" opacity="0.85"/>
  <path d="M0,800 L0,560 L171,511 L343,456 L514,397 L686,343 L857,260 L1029,308 L1200,317 L1200,800 Z" fill="#3A4656" fill-opacity="0.9"/>
  <path d="M0,800 L0,640 L92,622 L185,597 L277,572 L369,550 L462,529 L554,499 L646,477 L738,452 L831,413 L923,380 L1015,400 L1108,421 L1200,430 L1200,800 Z" fill="#2C3644" fill-opacity="0.95"/>
  <path d="M0,800 L0,720 L48,717 L96,705 L144,691 L192,684 L240,674 L288,662 L336,650 L384,643 L432,636 L480,626 L528,615 L576,600 L624,590 L672,582 L720,576 L768,561 L816,545 L864,528 L912,512 L960,500 L1008,504 L1056,517 L1104,525 L1152,535 L1200,542 L1200,800 Z" fill="#1F2733" fill-opacity="1"/>
  <path d="M0,800 L0,800 L24,796 L49,797 L73,794 L98,787 L122,782 L147,775 L171,772 L196,769 L220,765 L245,760 L269,757 L294,750 L318,743 L343,740 L367,736 L392,734 L416,732 L441,728 L465,723 L490,719 L514,713 L539,710 L563,705 L588,697 L612,691 L637,689 L661,685 L686,682 L710,680 L735,676 L759,670 L784,663 L808,655 L833,649 L857,642 L882,635 L906,626 L931,621 L955,616 L980,611 L1004,610 L1029,614 L1053,620 L1078,626 L1102,631 L1127,632 L1151,638 L1176,641 L1200,647 L1200,800 Z" fill="#151B24" fill-opacity="1"/>
  <rect width="1200" height="800" filter="url(#grain)"/>
</svg>
