<svg xmlns="http://www.w3.org/2000/svg" width="1200" height="800" viewBox="0 0 1200 800">
  <defs>
    <linearGradient id="sky" x1="0" y1="0" x2="0" y2="1">
      <stop offset="0" stop-color="#161A20"/>
      <stop offset="0.55" stop-color="#25303E"/>
      <stop offset="1" stop-color="#4A5A6E"/>
    </linearGradient>
    <radialGradient id="glow" cx="0.35" cy="0.34" r="0.5">
      <stop offset="0" stop-color="#D9A441" stop-opacity="0.55"/>
      <stop offset="1" stop-color="#D9A441" stop-opacity="0"/>
    </radialGradient>
    <filter id="grain">
      <feTurbulence type="fractalNoise" baseFrequency="0.9" numOctaves="2" seed="57" stitchTiles="stitch"/>
      <feColorMatrix type="matrix" values="0 0 0 0 0.93 0 0 0 0 0.9 0 0 0 0 0.85 0 0 0 0.06 0"/>
    </filter>
  </defs>
  <rect width="1200" height="800" fill="url(#sky)"/>
  <rect width="1200" height="800" fill="url(#glow)"/>
  <circle cx="415" cy="275" r="56" fill="#D9A441" opacity="0.85"/>
  <path d="M0,800 L0,553 L92,536 L185,515 L277,486 L369,451 L462,429 L554,378 L646,308 L738,260 L831,334 L923,415 L1015,480 L1108,524 L1200,560 L1200,800 Z" fill="#3A4656" fill-opacity="0.9"/>
  <path d="M0,800 L0,634 L46,626 L92,619 L138,610 L185,601 L231,588 L277,576 L323,561 L369,545 L415,538 L462,526 L508,509 L554,483 L600,449 L646,422 L692,394 L738,380 L785,410 L831,444 L877,477 L923,514 L969,545 L1015,570 L1062,591 L1108,609 L1154,626 L1200,640 L1200,800 Z" fill="#2C3644" fill-opacity="0.95"/>
  <path d="M0,800 L0,715 L23,712 L46,708 L69,705 L92,702 L115,700 L138,695 L162,692 L185,687 L208,682 L231,676 L254,672 L277,666 L300,661 L323,653 L346,652 L369,640 L392,639 L415,634 L438,630 L462,624 L485,618 L508,610 L531,598 L554,587 L577,571 L600,559 L623,549 L646,536 L669,523 L692,513 L715,500 L738,501 L762,513 L785,526 L808,540 L831,555 L854,568 L877,583 L900,597 L923,614 L946,628 L969,640 L992,651 L1015,661 L1038,669 L1062,679 L1085,687 L1108,694 L1131,700 L1154,708 L1177,716 L1200,720 L1200,800 Z" fill="#1F2733" fill-opacity="1"/>
  <path d="M0,800 L0,796 L12,793 L23,793 L35,790 L47,790 L58,788 L70,787 L82,787 L93,785 L105,784 L117,783 L128,781 L140,779 L151,779 L163,776 L175,773 L186,772 L198,770 L210,768 L221,765 L233,763 L245,761 L256,759 L268,757 L280,754 L291,752 L303,750 L315,747 L326,744 L338,741 L350,742 L361,738 L373,732 L384,733 L396,731 L408,728 L419,727 L431,726 L443,724 L454,722 L466,719 L478,716 L489,713 L501,710 L513,706 L524,702 L536,696 L548,691 L559,687 L571,680 L583,674 L594,668 L606,664 L617,660 L629,655 L641,650 L652,644 L664,638 L676,633 L687,629 L699,624 L711,618 L722,613 L734,610 L746,614 L757,619 L769,625 L781,631 L792,636 L804,642 L816,648 L827,655 L839,660 L850,666 L862,671 L874,678 L885,684 L897,688 L909,696 L920,702 L932,710 L944,716 L955,722 L967,725 L979,732 L990,738 L1002,742 L1014,746 L1025,750 L1037,754 L1049,757 L1060,762 L1072,765 L1083,769 L1095,772 L1107,775 L1118,778 L1130,781 L1142,783 L1153,786 L1165,790 L1177,794 L1188,797 L1200,800 L1200,800 Z" fill="#151B24" fill-opacity="1"/>
  <rect width="1200" height="800" filter="url(#grain)"/>
</svg>
