<svg xmlns="http://www.w3.org/2000/svg" width="1200" height="800" viewBox="0 0 1200 800">
  <defs>
    <linearGradient id="sky" x1="0" y1="0" x2="0" y2="1">
      <stop offset="0" stop-color="#161A20"/>
      <stop offset="0.55" stop-color="#25303E"/>
      <stop offset="1" stop-color="#4A5A6E"/>
    </linearGradient>
    <radialGradient id="glow" cx="0.24" cy="0.20" r="0.5">
      <stop offset="0" stop-color="#D9A441" stop-opacity="0.55"/>
      <stop offset="1" stop-color="#D9A441" stop-opacity="0"/>
    </radialGradient>
    <filter id="grain">
      <feTurbulence type="fractalNoise" baseFrequency="0.9" numOctaves="2" seed="11" stitchTiles="stitch"/>
      <feColorMatrix type="matrix" values="0 0 0 0 0.93 0 0 0 0 0.9 0 0 0 0 0.85 0 0 0 0.06 0"/>
    </filter>
  </defs>
  <rect width="1200" height="800" fill="url(#sky)"/>
  <rect width="1200" height="800" fill="url(#glow)"/>
  <circle cx="284" cy="161" r="56" fill="#D9A441" opacity="0.85"/>
  <path d="M0,800 L0,474 L92,405 L185,363 L277,319 L369,270 L462,260 L554,315 L646,378 L738,417 L831,385 L923,412 L1015,479 L1108,523 L1200,560 L1200,800 Z" fill="#3A4656" fill-opacity="0.9"/>
  <path d="M0,800 L0,565 L46,540 L92,505 L138,486 L185,470 L231,458 L277,431 L323,404 L369,389 L415,393 L462,380 L508,402 L554,427 L600,453 L646,483 L692,512 L738,516 L785,497 L831,489 L877,504 L923,512 L969,540 L1015,570 L1062,579 L1108,608 L1154,625 L1200,640 L1200,800 Z" fill="#2C3644" fill-opacity="0.95"/>
  <path d="M0,800 L0,657 L23,645 L46,635 L69,616 L92,606 L115,597 L138,590 L162,583 L185,576 L208,574 L231,566 L254,558 L277,543 L300,531 L323,521 L346,514 L369,508 L392,507 L415,511 L438,504 L462,500 L485,508 L508,518 L531,529 L554,540 L577,552 L600,562 L623,573 L646,587 L669,602 L692,612 L715,619 L738,615 L762,608 L785,599 L808,590 L831,592 L854,600 L877,605 L900,610 L923,612 L946,620 L969,635 L992,648 L1015,661 L1038,667 L1062,668 L1085,679 L1108,693 L1131,700 L1154,708 L1177,718 L1200,720 L1200,800 Z" fill="#1F2733" fill-opacity="1"/>
  <path d="M0,800 L0,744 L12,739 L23,734 L35,730 L46,726 L58,718 L69,710 L81,706 L92,701 L104,695 L115,693 L127,691 L138,687 L150,682 L162,681 L173,677 L185,675 L196,675 L208,673 L219,671 L231,666 L242,662 L254,659 L265,654 L277,647 L288,642 L300,637 L312,631 L323,628 L335,625 L346,622 L358,619 L369,617 L381,617 L392,616 L404,618 L415,620 L427,620 L438,614 L450,612 L462,610 L473,613 L485,617 L496,622 L508,626 L519,629 L531,634 L542,639 L554,644 L565,650 L577,654 L588,658 L600,663 L612,668 L623,672 L635,677 L646,684 L658,691 L669,697 L681,700 L692,706 L704,711 L715,712 L727,709 L738,708 L750,704 L762,702 L773,698 L785,695 L796,691 L808,687 L819,689 L831,689 L842,690 L854,696 L865,697 L877,700 L888,702 L900,704 L912,703 L923,705 L935,708 L946,713 L958,720 L969,725 L981,730 L992,737 L1004,742 L1015,747 L1027,750 L1038,752 L1050,753 L1062,754 L1073,759 L1085,763 L1096,769 L1108,775 L1119,780 L1131,781 L1142,784 L1154,787 L1165,792 L1177,796 L1188,800 L1200,798 L1200,800 Z" fill="#151B24" fill-opacity="1"/>
  <rect width="1200" height="800" filter="url(#grain)"/>
</svg>
