<svg xmlns="http://www.w3.org/2000/svg" width="1200" height="800" viewBox="0 0 1200 800">
  <defs>
    <linearGradient id="sky" x1="0" y1="0" x2="0" y2="1">
      <stop offset="0" stop-color="#161A20"/>
      <stop offset="0.55" stop-color="#25303E"/>
      <stop offset="1" stop-color="#4A5A6E"/>
    </linearGradient>
    <radialGradient id="glow" cx="0.27" cy="0.10" r="0.5">
      <stop offset="0" stop-color="#D9A441" stop-opacity="0.55"/>
      <stop offset="1" stop-color="#D9A441" stop-opacity="0"/>
    </radialGradient>
    <filter id="grain">
      <feTurbulence type="fractalNoise" baseFrequency="0.9" numOctaves="2" seed="20" stitchTiles="stitch"/>
      <feColorMatrix type="matrix" values="0 0 0 0 0.93 0 0 0 0 0.9 0 0 0 0 0.85 0 0 0 0.06 0"/>
    </filter>
  </defs>
  <rect width="1200" height="800" fill="url(#sky)"/>
  <rect width="1200" height="800" fill="url(#glow)"/>
  <circle cx="329" cy="79" r="56" fill="#D9A441" opacity="0.85"/>
  <path d="M0,800 L0,560 L80,523 L160,454 L240,409 L320,347 L400,372 L480,324 L560,391 L640,390 L720,363 L800,332 L880,274 L960,323 L1040,260 L1120,339 L1200,391 L1200,800 Z" fill="#3A4656" fill-opacity="0.9"/>
  <path d="M0,800 L0,640 L40,628 L80,608 L120,578 L160,548 L200,509 L240,509 L280,485 L320,455 L360,474 L400,477 L440,428 L480,435 L520,446 L560,494 L600,520 L640,493 L680,502 L720,470 L760,457 L800,442 L840,425 L880,392 L920,403 L960,435 L1000,443 L1040,380 L1080,418 L1120,449 L1160,458 L1200,493 L1200,800 Z" fill="#2C3644" fill-opacity="0.95"/>
  <path d="M0,800 L0,720 L20,719 L40,710 L60,710 L80,693 L100,693 L120,668 L140,648 L160,642 L180,610 L200,609 L220,610 L240,609 L260,611 L280,589 L300,575 L320,564 L340,574 L360,580 L380,586 L400,582 L420,572 L440,541 L460,545 L480,547 L500,565 L520,556 L540,569 L560,596 L580,608 L600,619 L620,617 L640,595 L660,586 L680,603 L700,594 L720,576 L740,579 L760,566 L780,547 L800,553 L820,555 L840,538 L860,529 L880,510 L900,504 L920,519 L940,535 L960,546 L980,558 L1000,553 L1020,522 L1040,500 L1060,523 L1080,532 L1100,531 L1120,558 L1140,559 L1160,566 L1180,592 L1200,596 L1200,800 Z" fill="#1F2733" fill-opacity="1"/>
  <path d="M0,800 L0,800 L10,799 L20,799 L30,794 L40,792 L50,790 L61,791 L71,784 L81,777 L91,774 L101,777 L111,764 L121,755 L131,750 L141,738 L151,735 L161,733 L171,721 L182,705 L192,702 L202,704 L212,703 L222,705 L232,700 L242,704 L252,710 L262,706 L272,694 L282,687 L292,687 L303,675 L313,673 L323,665 L333,668 L343,674 L353,673 L363,679 L373,679 L383,684 L393,683 L403,681 L413,673 L424,673 L434,658 L444,645 L454,639 L464,649 L474,650 L484,651 L494,661 L504,666 L514,669 L524,658 L534,660 L545,670 L555,681 L565,693 L575,702 L585,703 L595,709 L605,712 L615,710 L625,711 L635,703 L645,692 L655,685 L666,684 L676,689 L686,699 L696,702 L706,691 L716,676 L726,675 L736,673 L746,678 L756,674 L766,667 L776,654 L787,651 L797,652 L807,655 L817,657 L827,657 L837,648 L847,643 L857,641 L867,635 L877,628 L887,619 L897,613 L908,613 L918,613 L928,627 L938,641 L948,641 L958,649 L968,650 L978,646 L988,660 L998,664 L1008,656 L1018,644 L1029,629 L1039,621 L1049,610 L1059,631 L1069,630 L1079,642 L1089,638 L1099,626 L1109,636 L1119,648 L1129,660 L1139,666 L1150,661 L1160,667 L1170,667 L1180,681 L1190,689 L1200,693 L1200,800 Z" fill="#151B24" fill-opacity="1"/>
  <rect width="1200" height="800" filter="url(#grain)"/>
</svg>
