<svg xmlns="http://www.w3.org/2000/svg" width="1200" height="800" viewBox="0 0 1200 800">
  <defs>
    <linearGradient id="sky" x1="0" y1="0" x2="0" y2="1">
      <stop offset="0" stop-color="#161A20"/>
      <stop offset="0.55" stop-color="#25303E"/>
      <stop offset="1" stop-color="#4A5A6E"/>
    </linearGradient>
    <radialGradient id="glow" cx="0.42" cy="0.40" r="0.5">
      <stop offset="0" stop-color="#D9A441" stop-opacity="0.55"/>
      <stop offset="1" stop-color="#D9A441" stop-opacity="0"/>
    </radialGradient>
    <filter id="grain">
      <feTurbulence type="fractalNoise" baseFrequency="0.9" numOctaves="2" seed="37" stitchTiles="stitch"/>
      <feColorMatrix type="matrix" values="0 0 0 0 0.93 0 0 0 0 0.9 0 0 0 0 0.85 0 0 0 0.06 0"/>
    </filter>
  </defs>
  <rect width="1200" height="800" fill="url(#sky)"/>
  <rect width="1200" height="800" fill="url(#glow)"/>
  <circle cx="509" cy="321" r="56" fill="#D9A441" opacity="0.85"/>
  <path d="M0,800 L0,298 L100,260 L200,272 L300,303 L400,314 L500,294 L600,317 L700,350 L800,411 L900,486 L1000,560 L1100,481 L1200,412 L1200,800 Z" fill="#3A4656" fill-opacity="0.9"/>
  <path d="M0,800 L0,439 L50,412 L100,410 L150,430 L200,419 L250,380 L300,443 L350,515 L400,452 L450,451 L500,436 L550,433 L600,453 L650,466 L700,479 L750,506 L800,526 L850,570 L900,584 L950,632 L1000,640 L1050,617 L1100,579 L1150,537 L1200,526 L1200,800 Z" fill="#2C3644" fill-opacity="0.95"/>
  <path d="M0,800 L0,547 L25,538 L50,526 L75,526 L100,524 L125,531 L150,540 L175,532 L200,531 L225,518 L250,500 L275,520 L300,551 L325,580 L350,609 L375,579 L400,558 L425,556 L450,557 L475,555 L500,545 L525,545 L550,543 L575,551 L600,559 L625,568 L650,569 L675,581 L700,580 L725,591 L750,601 L775,610 L800,617 L825,638 L850,653 L875,658 L900,664 L925,683 L950,703 L975,720 L1000,709 L1025,686 L1050,691 L1075,676 L1100,661 L1125,640 L1150,626 L1175,613 L1200,618 L1200,800 Z" fill="#1F2733" fill-opacity="1"/>
  <path d="M0,800 L0,651 L13,646 L25,643 L38,635 L51,632 L63,631 L76,633 L88,632 L101,631 L114,632 L126,637 L139,639 L152,645 L164,635 L177,638 L189,639 L202,637 L215,638 L227,626 L240,613 L253,610 L265,618 L278,627 L291,642 L303,654 L316,664 L328,679 L341,693 L354,704 L366,693 L379,678 L392,664 L404,660 L417,660 L429,658 L442,658 L455,659 L467,658 L480,658 L493,655 L505,649 L518,647 L531,648 L543,650 L556,647 L568,651 L581,654 L594,659 L606,661 L619,665 L632,669 L644,669 L657,669 L669,679 L682,680 L695,681 L707,679 L720,685 L733,688 L745,693 L758,697 L771,702 L783,705 L796,705 L808,711 L821,718 L834,729 L846,742 L859,742 L872,741 L884,747 L897,744 L909,752 L922,763 L935,768 L947,775 L960,785 L973,791 L985,800 L998,798 L1011,791 L1023,783 L1036,770 L1048,771 L1061,775 L1074,771 L1086,762 L1099,750 L1112,749 L1124,739 L1137,731 L1149,723 L1162,719 L1175,710 L1187,707 L1200,712 L1200,800 Z" fill="#151B24" fill-opacity="1"/>
  <rect width="1200" height="800" filter="url(#grain)"/>
</svg>
