<svg xmlns="http://www.w3.org/2000/svg" width="1200" height="800" viewBox="0 0 1200 800">
  <defs>
    <linearGradient id="sky" x1="0" y1="0" x2="0" y2="1">
      <stop offset="0" stop-color="#161A20"/>
      <stop offset="0.55" stop-color="#25303E"/>
      <stop offset="1" stop-color="#4A5A6E"/>
    </linearGradient>
    <radialGradient id="glow" cx="0.35" cy="0.26" r="0.5">
      <stop offset="0" stop-color="#D9A441" stop-opacity="0.55"/>
      <stop offset="1" stop-color="#D9A441" stop-opacity="0"/>
    </radialGradient>
    <filter id="grain">
      <feTurbulence type="fractalNoise" baseFrequency="0.9" numOctaves="2" seed="86" stitchTiles="stitch"/>
      <feColorMatrix type="matrix" values="0 0 0 0 0.93 0 0 0 0 0.9 0 0 0 0 0.85 0 0 0 0.06 0"/>
    </filter>
  </defs>
  <rect width="1200" height="800" fill="url(#sky)"/>
  <rect width="1200" height="800" fill="url(#glow)"/>
  <circle cx="418" cy="211" r="56" fill="#D9A441" opacity="0.85"/>
  <path d="M0,800 L0,550 L92,473 L185,485 L277,522 L369,560 L462,528 L554,498 L646,405 L738,292 L831,260 L923,349 L1015,440 L1108,507 L1200,513 L1200,800 Z" fill="#3A4656" fill-opacity="0.9"/>
  <path d="M0,800 L0,631 L48,603 L96,566 L144,553 L192,576 L240,591 L288,608 L336,628 L384,640 L432,637 L480,613 L528,609 L576,588 L624,552 L672,509 L720,469 L768,413 L816,380 L864,386 L912,397 L960,461 L1008,503 L1056,538 L1104,559 L1152,595 L1200,600 L1200,800 Z" fill="#2C3644" fill-opacity="0.95"/>
  <path d="M0,800 L0,711 L24,696 L49,687 L73,673 L98,656 L122,637 L147,645 L171,655 L196,664 L220,674 L245,677 L269,684 L294,691 L318,696 L343,707 L367,711 L392,718 L416,720 L441,716 L465,707 L490,695 L514,692 L539,692 L563,682 L588,674 L612,658 L637,644 L661,626 L686,608 L710,591 L735,574 L759,549 L784,527 L808,511 L833,500 L857,501 L882,505 L906,504 L931,514 L955,538 L980,568 L1004,593 L1029,603 L1053,622 L1078,632 L1102,636 L1127,650 L1151,667 L1176,680 L1200,684 L1200,800 Z" fill="#1F2733" fill-opacity="1"/>
  <path d="M0,800 L0,792 L12,787 L25,779 L37,777 L49,771 L62,766 L74,760 L87,751 L99,745 L111,734 L124,729 L136,729 L148,735 L161,738 L173,744 L186,748 L198,752 L210,757 L223,760 L235,760 L247,763 L260,766 L272,769 L285,772 L297,775 L309,778 L322,780 L334,784 L346,789 L359,789 L371,792 L384,798 L396,798 L408,798 L421,800 L433,798 L445,796 L458,794 L470,789 L482,783 L495,779 L507,773 L520,776 L532,777 L544,776 L557,772 L569,767 L581,764 L594,760 L606,753 L619,747 L631,739 L643,735 L656,726 L668,719 L680,712 L693,703 L705,696 L718,689 L730,681 L742,675 L755,665 L767,653 L779,641 L792,634 L804,630 L816,620 L829,616 L841,611 L854,610 L866,611 L878,610 L891,615 L903,614 L915,614 L928,616 L940,622 L953,630 L965,643 L977,654 L990,669 L1002,678 L1014,690 L1027,700 L1039,699 L1052,706 L1064,715 L1076,722 L1089,724 L1101,727 L1113,728 L1126,732 L1138,739 L1151,749 L1163,755 L1175,760 L1188,766 L1200,769 L1200,800 Z" fill="#151B24" fill-opacity="1"/>
  <rect width="1200" height="800" filter="url(#grain)"/>
</svg>
