<svg xmlns="http://www.w3.org/2000/svg" width="1200" height="800" viewBox="0 0 1200 800">
  <defs>
    <linearGradient id="sky" x1="0" y1="0" x2="0" y2="1">
      <stop offset="0" stop-color="#161A20"/>
      <stop offset="0.55" stop-color="#25303E"/>
      <stop offset="1" stop-color="#4A5A6E"/>
    </linearGradient>
    <radialGradient id="glow" cx="0.72" cy="0.38" r="0.5">
      <stop offset="0" stop-color="#D9A441" stop-opacity="0.55"/>
      <stop offset="1" stop-color="#D9A441" stop-opacity="0"/>
    </radialGradient>
    <filter id="grain">
      <feTurbulence type="fractalNoise" baseFrequency="0.9" numOctaves="2" seed="68" stitchTiles="stitch"/>
      <feColorMatrix type="matrix" values="0 0 0 0 0.93 0 0 0 0 0.9 0 0 0 0 0.85 0 0 0 0.06 0"/>
    </filter>
  </defs>
  <rect width="1200" height="800" fill="url(#sky)"/>
  <rect width="1200" height="800" fill="url(#glow)"/>
  <circle cx="864" cy="288" r="60" fill="#D9A441" opacity="0.85"/>
  <g fill="none" stroke="#EDE6DA" stroke-opacity="0.05" stroke-width="1.2"><ellipse cx="702" cy="285" rx="122" ry="90" transform="rotate(12.2 702 285)"/><ellipse cx="702" cy="285" rx="205" ry="120" transform="rotate(6.6 702 285)"/><ellipse cx="702" cy="285" rx="281" ry="164" transform="rotate(4.2 702 285)"/><ellipse cx="702" cy="285" rx="322" ry="198" transform="rotate(10.8 702 285)"/><ellipse cx="702" cy="285" rx="417" ry="280" transform="rotate(14.9 702 285)"/><ellipse cx="702" cy="285" rx="467" ry="276" transform="rotate(4.6 702 285)"/><ellipse cx="702" cy="285" rx="507" ry="361" transform="rotate(4.3 702 285)"/></g>
  <path d="M0 800 L0 416 L67 436 L133 436 L200 471 L267 471 L333 476 L400 476 L467 519 L533 477 L600 376 L667 376 L733 387 L800 464 L867 363 L933 378 L1000 435 L1067 416 L1133 291 L1200 357 L1200 800 Z" fill="#1E242C" opacity="0.9"/>
  <path d="M0 800 L0 528 L55 544 L109 544 L164 482 L218 482 L273 445 L327 500 L382 487 L436 487 L491 500 L545 500 L600 551 L655 579 L709 562 L764 530 L818 519 L873 519 L927 534 L982 534 L1036 576 L1091 576 L1145 567 L1200 567 L1200 800 Z" fill="#171C22"/>
  <path d="M0 800 L0 640 L46 573 L92 634 L138 663 L185 663 L231 663 L277 663 L323 629 L369 629 L415 635 L462 635 L508 600 L554 646 L600 611 L646 619 L692 693 L738 635 L785 614 L831 614 L877 638 L923 638 L969 629 L1015 629 L1062 639 L1108 639 L1154 572 L1200 622 L1200 800 Z" fill="#121519"/>
  <path d="M-20 590 C 300 540, 480 630, 744 560 S 1080 490, 1220 510" fill="none" stroke="#E8622C" stroke-width="3" stroke-dasharray="12 9" stroke-linecap="round" opacity="0.55"/>
  <rect width="1200" height="800" filter="url(#grain)"/>
</svg>
