<svg xmlns="http://www.w3.org/2000/svg" width="1200" height="800" viewBox="0 0 1200 800">
  <defs>
    <linearGradient id="sky" x1="0" y1="0" x2="0" y2="1">
      <stop offset="0" stop-color="#1A1612"/>
      <stop offset="0.55" stop-color="#3E2E25"/>
      <stop offset="1" stop-color="#7A4E33"/>
    </linearGradient>
    <radialGradient id="glow" cx="0.51" cy="0.40" r="0.5">
      <stop offset="0" stop-color="#D9A441" stop-opacity="0.55"/>
      <stop offset="1" stop-color="#D9A441" stop-opacity="0"/>
    </radialGradient>
    <filter id="grain">
      <feTurbulence type="fractalNoise" baseFrequency="0.9" numOctaves="2" seed="47" stitchTiles="stitch"/>
      <feColorMatrix type="matrix" values="0 0 0 0 0.93 0 0 0 0 0.9 0 0 0 0 0.85 0 0 0 0.06 0"/>
    </filter>
  </defs>
  <rect width="1200" height="800" fill="url(#sky)"/>
  <rect width="1200" height="800" fill="url(#glow)"/>
  <circle cx="610" cy="323" r="56" fill="#D9A441" opacity="0.85"/>
  <path d="M0,800 L0,560 L171,536 L343,512 L514,495 L686,448 L857,385 L1029,299 L1200,260 L1200,800 Z" fill="#5C3D2E" fill-opacity="0.9"/>
  <path d="M0,800 L0,640 L92,628 L185,619 L277,607 L369,599 L462,602 L554,583 L646,567 L738,543 L831,512 L923,488 L1015,446 L1108,414 L1200,380 L1200,800 Z" fill="#452E24" fill-opacity="0.95"/>
  <path d="M0,800 L0,720 L48,716 L96,710 L144,709 L192,703 L240,699 L288,692 L336,687 L384,685 L432,690 L480,688 L528,673 L576,672 L624,665 L672,659 L720,650 L768,638 L816,625 L864,612 L912,597 L960,591 L1008,549 L1056,556 L1104,543 L1152,528 L1200,500 L1200,800 Z" fill="#30211B" fill-opacity="1"/>
  <path d="M0,800 L0,795 L24,800 L48,791 L72,788 L96,786 L120,785 L144,786 L168,778 L192,780 L216,778 L240,777 L264,779 L288,771 L312,771 L336,767 L360,764 L384,765 L408,764 L432,769 L456,769 L480,768 L504,762 L528,755 L552,758 L576,755 L600,752 L624,748 L648,748 L672,743 L696,740 L720,736 L744,730 L768,726 L792,718 L816,715 L840,710 L864,704 L888,704 L912,692 L936,688 L960,687 L984,681 L1008,651 L1032,646 L1056,657 L1080,654 L1104,646 L1128,642 L1152,634 L1176,629 L1200,610 L1200,800 Z" fill="#1E1613" fill-opacity="1"/>
  <rect width="1200" height="800" filter="url(#grain)"/>
</svg>
