<svg xmlns="http://www.w3.org/2000/svg" width="1200" height="800" viewBox="0 0 1200 800">
  <defs>
    <linearGradient id="sky" x1="0" y1="0" x2="0" y2="1">
      <stop offset="0" stop-color="#161A20"/>
      <stop offset="0.55" stop-color="#25303E"/>
      <stop offset="1" stop-color="#4A5A6E"/>
    </linearGradient>
    <radialGradient id="glow" cx="0.39" cy="0.40" r="0.5">
      <stop offset="0" stop-color="#D9A441" stop-opacity="0.55"/>
      <stop offset="1" stop-color="#D9A441" stop-opacity="0"/>
    </radialGradient>
    <filter id="grain">
      <feTurbulence type="fractalNoise" baseFrequency="0.9" numOctaves="2" seed="42" stitchTiles="stitch"/>
      <feColorMatrix type="matrix" values="0 0 0 0 0.93 0 0 0 0 0.9 0 0 0 0 0.85 0 0 0 0.06 0"/>
    </filter>
  </defs>
  <rect width="1200" height="800" fill="url(#sky)"/>
  <rect width="1200" height="800" fill="url(#glow)"/>
  <circle cx="470" cy="319" r="56" fill="#D9A441" opacity="0.85"/>
  <path d="M0,800 L0,560 L100,516 L200,474 L300,437 L400,390 L500,345 L600,313 L700,313 L800,303 L900,291 L1000,277 L1100,265 L1200,260 L1200,800 Z" fill="#3A4656" fill-opacity="0.9"/>
  <path d="M0,800 L0,640 L52,620 L104,602 L157,583 L209,565 L261,551 L313,533 L365,514 L417,493 L470,473 L522,454 L574,435 L626,426 L678,427 L730,426 L783,422 L835,417 L887,414 L939,407 L991,401 L1043,395 L1096,390 L1148,384 L1200,380 L1200,800 Z" fill="#2C3644" fill-opacity="0.95"/>
  <path d="M0,800 L0,720 L26,712 L52,703 L78,695 L104,688 L130,680 L157,672 L183,664 L209,657 L235,650 L261,645 L287,637 L313,629 L339,621 L365,614 L391,605 L417,596 L443,588 L470,579 L496,570 L522,563 L548,555 L574,547 L600,538 L626,539 L652,540 L678,540 L704,538 L730,539 L757,537 L783,536 L809,532 L835,531 L861,529 L887,528 L913,527 L939,523 L965,523 L991,518 L1017,515 L1043,513 L1070,510 L1096,508 L1122,506 L1148,504 L1174,502 L1200,500 L1200,800 Z" fill="#1F2733" fill-opacity="1"/>
  <path d="M0,800 L0,800 L13,796 L26,793 L40,789 L53,786 L66,782 L79,778 L92,775 L105,772 L119,769 L132,765 L145,762 L158,758 L171,755 L185,751 L198,748 L211,746 L224,743 L237,739 L251,737 L264,735 L277,732 L290,728 L303,725 L316,722 L330,718 L343,715 L356,711 L369,708 L382,705 L396,700 L409,697 L422,693 L435,689 L448,686 L462,682 L475,678 L488,675 L501,671 L514,667 L527,664 L541,661 L554,657 L567,653 L580,650 L593,647 L607,643 L620,643 L633,644 L646,644 L659,645 L673,644 L686,645 L699,644 L712,643 L725,643 L738,643 L752,643 L765,642 L778,642 L791,641 L804,640 L818,638 L831,638 L844,637 L857,635 L870,635 L884,634 L897,635 L910,634 L923,633 L936,632 L949,630 L963,631 L976,630 L989,627 L1002,625 L1015,624 L1029,623 L1042,622 L1055,621 L1068,621 L1081,619 L1095,618 L1108,617 L1121,618 L1134,615 L1147,614 L1160,613 L1174,612 L1187,611 L1200,610 L1200,800 Z" fill="#151B24" fill-opacity="1"/>
  <rect width="1200" height="800" filter="url(#grain)"/>
</svg>
