<svg xmlns="http://www.w3.org/2000/svg" width="1200" height="800" viewBox="0 0 1200 800">
  <defs>
    <linearGradient id="sky" x1="0" y1="0" x2="0" y2="1">
      <stop offset="0" stop-color="#1A1612"/>
      <stop offset="0.55" stop-color="#3E2E25"/>
      <stop offset="1" stop-color="#7A4E33"/>
    </linearGradient>
    <radialGradient id="glow" cx="0.58" cy="0.40" r="0.5">
      <stop offset="0" stop-color="#D9A441" stop-opacity="0.55"/>
      <stop offset="1" stop-color="#D9A441" stop-opacity="0"/>
    </radialGradient>
    <filter id="grain">
      <feTurbulence type="fractalNoise" baseFrequency="0.9" numOctaves="2" seed="50" stitchTiles="stitch"/>
      <feColorMatrix type="matrix" values="0 0 0 0 0.93 0 0 0 0 0.9 0 0 0 0 0.85 0 0 0 0.06 0"/>
    </filter>
  </defs>
  <rect width="1200" height="800" fill="url(#sky)"/>
  <rect width="1200" height="800" fill="url(#glow)"/>
  <circle cx="699" cy="323" r="56" fill="#D9A441" opacity="0.85"/>
  <path d="M0,800 L0,260 L80,507 L160,560 L240,540 L320,416 L400,369 L480,390 L560,419 L640,357 L720,393 L800,343 L880,345 L960,307 L1040,328 L1120,461 L1200,467 L1200,800 Z" fill="#5C3D2E" fill-opacity="0.9"/>
  <path d="M0,800 L0,380 L41,498 L83,594 L124,605 L166,640 L207,629 L248,622 L290,577 L331,515 L372,501 L414,475 L455,471 L497,492 L538,500 L579,518 L621,505 L662,464 L703,477 L745,495 L786,480 L828,452 L869,482 L910,453 L952,414 L993,421 L1034,409 L1076,439 L1117,531 L1159,554 L1200,560 L1200,800 Z" fill="#452E24" fill-opacity="0.95"/>
  <path d="M0,800 L0,500 L21,558 L42,600 L63,622 L84,681 L105,709 L126,691 L147,709 L168,720 L189,710 L211,710 L232,716 L253,705 L274,698 L295,666 L316,619 L337,614 L358,622 L379,602 L400,587 L421,580 L442,579 L463,577 L484,569 L505,595 L526,595 L547,602 L568,608 L589,617 L611,609 L632,606 L653,587 L674,571 L695,582 L716,582 L737,596 L758,598 L779,597 L800,584 L821,585 L842,561 L863,575 L884,586 L905,576 L926,562 L947,553 L968,528 L989,533 L1011,534 L1032,527 L1053,524 L1074,517 L1095,550 L1116,593 L1137,628 L1158,641 L1179,647 L1200,652 L1200,800 Z" fill="#30211B" fill-opacity="1"/>
  <path d="M0,800 L0,610 L11,636 L21,660 L32,681 L42,696 L53,705 L64,715 L74,747 L85,766 L96,783 L106,790 L117,778 L127,774 L138,782 L149,790 L159,798 L170,799 L181,793 L191,790 L202,800 L212,791 L223,793 L234,796 L244,788 L255,786 L265,777 L276,780 L287,771 L297,753 L308,739 L319,713 L329,702 L340,708 L350,703 L361,715 L372,694 L382,698 L393,683 L404,685 L414,690 L425,679 L435,682 L446,678 L457,675 L467,677 L478,660 L488,670 L499,677 L510,692 L520,696 L531,691 L542,696 L552,698 L563,699 L573,703 L584,702 L595,710 L605,699 L616,704 L627,701 L637,701 L648,701 L658,685 L669,680 L680,671 L690,678 L701,680 L712,684 L722,681 L733,687 L743,692 L754,689 L765,694 L775,690 L786,693 L796,695 L807,682 L818,683 L828,683 L839,679 L850,662 L860,661 L871,674 L881,684 L892,684 L903,685 L913,676 L924,664 L935,663 L945,655 L956,655 L966,639 L977,634 L988,632 L998,639 L1009,643 L1019,640 L1030,636 L1041,633 L1051,631 L1062,631 L1073,631 L1083,625 L1094,640 L1104,653 L1115,670 L1126,690 L1136,702 L1147,720 L1158,728 L1168,731 L1179,736 L1189,737 L1200,741 L1200,800 Z" fill="#1E1613" fill-opacity="1"/>
  <rect width="1200" height="800" filter="url(#grain)"/>
</svg>
