<svg xmlns="http://www.w3.org/2000/svg" width="1200" height="800" viewBox="0 0 1200 800">
  <defs>
    <linearGradient id="sky" x1="0" y1="0" x2="0" y2="1">
      <stop offset="0" stop-color="#161A20"/>
      <stop offset="0.55" stop-color="#25303E"/>
      <stop offset="1" stop-color="#4A5A6E"/>
    </linearGradient>
    <radialGradient id="glow" cx="0.72" cy="0.39" r="0.5">
      <stop offset="0" stop-color="#D9A441" stop-opacity="0.55"/>
      <stop offset="1" stop-color="#D9A441" stop-opacity="0"/>
    </radialGradient>
    <filter id="grain">
      <feTurbulence type="fractalNoise" baseFrequency="0.9" numOctaves="2" seed="24" stitchTiles="stitch"/>
      <feColorMatrix type="matrix" values="0 0 0 0 0.93 0 0 0 0 0.9 0 0 0 0 0.85 0 0 0 0.06 0"/>
    </filter>
  </defs>
  <rect width="1200" height="800" fill="url(#sky)"/>
  <rect width="1200" height="800" fill="url(#glow)"/>
  <circle cx="870" cy="309" r="56" fill="#D9A441" opacity="0.85"/>
  <path d="M0,800 L0,534 L80,542 L160,548 L240,553 L320,560 L400,522 L480,443 L560,373 L640,324 L720,280 L800,275 L880,260 L960,283 L1040,295 L1120,307 L1200,378 L1200,800 Z" fill="#3A4656" fill-opacity="0.9"/>
  <path d="M0,800 L0,617 L40,622 L80,624 L120,626 L160,630 L200,631 L240,634 L280,636 L320,640 L360,625 L400,607 L440,581 L480,539 L520,505 L560,478 L600,455 L640,436 L680,417 L720,397 L760,390 L800,393 L840,410 L880,380 L920,386 L960,400 L1000,405 L1040,410 L1080,417 L1120,420 L1160,443 L1200,482 L1200,800 Z" fill="#2C3644" fill-opacity="0.95"/>
  <path d="M0,800 L0,701 L20,702 L40,704 L60,704 L80,707 L100,704 L120,709 L140,710 L160,711 L180,714 L200,713 L220,713 L240,715 L260,716 L280,717 L300,719 L320,720 L340,707 L360,707 L380,711 L400,692 L420,684 L440,670 L460,648 L480,634 L500,619 L520,606 L540,593 L560,583 L580,574 L600,563 L620,552 L640,547 L660,540 L680,531 L700,519 L720,515 L740,515 L760,509 L780,510 L800,511 L820,522 L840,526 L860,506 L880,500 L900,503 L920,505 L940,512 L960,517 L980,519 L1000,521 L1020,521 L1040,525 L1060,528 L1080,531 L1100,530 L1120,534 L1140,549 L1160,554 L1180,572 L1200,586 L1200,800 Z" fill="#1F2733" fill-opacity="1"/>
  <path d="M0,800 L0,784 L10,784 L20,785 L30,786 L40,787 L50,787 L61,787 L71,788 L81,789 L91,787 L101,786 L111,788 L121,790 L131,791 L141,791 L151,792 L161,793 L171,793 L182,794 L192,795 L202,794 L212,794 L222,794 L232,797 L242,796 L252,797 L262,797 L272,799 L282,797 L292,799 L303,799 L313,800 L323,800 L333,796 L343,789 L353,786 L363,789 L373,793 L383,792 L393,786 L403,776 L413,770 L424,769 L434,766 L444,758 L454,750 L464,738 L474,732 L484,727 L494,721 L504,714 L514,709 L524,703 L534,699 L545,691 L555,689 L565,683 L575,677 L585,675 L595,671 L605,667 L615,663 L625,657 L635,655 L645,653 L655,651 L666,647 L676,642 L686,639 L696,632 L706,628 L716,628 L726,625 L736,621 L746,626 L756,622 L766,620 L776,621 L787,621 L797,621 L807,622 L817,628 L827,632 L837,636 L847,634 L857,625 L867,617 L877,610 L887,613 L897,614 L908,615 L918,615 L928,617 L938,620 L948,622 L958,625 L968,627 L978,629 L988,629 L998,629 L1008,630 L1018,632 L1029,630 L1039,631 L1049,634 L1059,636 L1069,637 L1079,638 L1089,639 L1099,637 L1109,638 L1119,639 L1129,642 L1139,648 L1150,655 L1160,656 L1170,658 L1180,665 L1190,674 L1200,686 L1200,800 Z" fill="#151B24" fill-opacity="1"/>
  <rect width="1200" height="800" filter="url(#grain)"/>
</svg>
