<svg xmlns="http://www.w3.org/2000/svg" width="1200" height="800" viewBox="0 0 1200 800">
  <defs>
    <linearGradient id="sky" x1="0" y1="0" x2="0" y2="1">
      <stop offset="0" stop-color="#161A20"/>
      <stop offset="0.55" stop-color="#25303E"/>
      <stop offset="1" stop-color="#4A5A6E"/>
    </linearGradient>
    <radialGradient id="glow" cx="0.20" cy="0.35" r="0.5">
      <stop offset="0" stop-color="#D9A441" stop-opacity="0.55"/>
      <stop offset="1" stop-color="#D9A441" stop-opacity="0"/>
    </radialGradient>
    <filter id="grain">
      <feTurbulence type="fractalNoise" baseFrequency="0.9" numOctaves="2" seed="68" stitchTiles="stitch"/>
      <feColorMatrix type="matrix" values="0 0 0 0 0.93 0 0 0 0 0.9 0 0 0 0 0.85 0 0 0 0.06 0"/>
    </filter>
  </defs>
  <rect width="1200" height="800" fill="url(#sky)"/>
  <rect width="1200" height="800" fill="url(#glow)"/>
  <circle cx="241" cy="280" r="56" fill="#D9A441" opacity="0.85"/>
  <path d="M0,800 L0,545 L80,528 L160,500 L240,468 L320,437 L400,432 L480,392 L560,479 L640,553 L720,560 L800,540 L880,519 L960,459 L1040,412 L1120,332 L1200,260 L1200,800 Z" fill="#3A4656" fill-opacity="0.9"/>
  <path d="M0,800 L0,622 L40,615 L80,607 L120,594 L160,583 L200,566 L240,556 L280,543 L320,530 L360,540 L400,525 L440,489 L480,492 L520,524 L560,566 L600,599 L640,628 L680,640 L720,634 L760,626 L800,618 L840,613 L880,599 L920,574 L960,548 L1000,535 L1040,509 L1080,480 L1120,441 L1160,408 L1200,380 L1200,800 Z" fill="#2C3644" fill-opacity="0.95"/>
  <path d="M0,800 L0,704 L20,701 L40,699 L60,696 L80,692 L100,688 L120,681 L140,674 L160,672 L180,665 L200,657 L220,653 L240,649 L260,639 L280,638 L300,627 L320,627 L340,632 L360,635 L380,628 L400,623 L420,611 L440,592 L460,577 L480,595 L500,606 L520,622 L540,638 L560,657 L580,674 L600,685 L620,702 L640,710 L660,720 L680,720 L700,717 L720,715 L740,712 L760,708 L780,706 L800,701 L820,698 L840,697 L860,690 L880,686 L900,681 L920,664 L940,649 L960,642 L980,639 L1000,631 L1020,619 L1040,609 L1060,596 L1080,584 L1100,569 L1120,552 L1140,538 L1160,523 L1180,508 L1200,500 L1200,800 Z" fill="#1F2733" fill-opacity="1"/>
  <path d="M0,800 L0,786 L10,785 L20,783 L30,781 L40,781 L50,780 L61,779 L71,778 L81,775 L91,773 L101,772 L111,769 L121,766 L131,761 L141,759 L151,758 L161,758 L171,756 L182,752 L192,748 L202,745 L212,743 L222,742 L232,740 L242,738 L252,736 L262,729 L272,726 L282,728 L292,723 L303,719 L313,717 L323,719 L333,720 L343,723 L353,727 L363,726 L373,723 L383,720 L393,719 L403,716 L413,713 L424,705 L434,697 L444,689 L454,682 L464,676 L474,683 L484,691 L494,696 L504,701 L514,708 L524,715 L534,723 L545,729 L555,738 L565,745 L575,754 L585,760 L595,761 L605,769 L615,777 L625,784 L635,788 L645,791 L655,794 L666,799 L676,800 L686,799 L696,797 L706,796 L716,795 L726,795 L736,794 L746,792 L756,789 L766,789 L776,789 L787,787 L797,785 L807,783 L817,780 L827,780 L837,780 L847,780 L857,777 L867,774 L877,773 L887,770 L897,768 L908,766 L918,759 L928,751 L938,742 L948,738 L958,735 L968,732 L978,731 L988,729 L998,725 L1008,723 L1018,718 L1029,713 L1039,709 L1049,704 L1059,698 L1069,692 L1079,688 L1089,682 L1099,677 L1109,670 L1119,662 L1129,654 L1139,649 L1150,643 L1160,636 L1170,630 L1180,623 L1190,617 L1200,610 L1200,800 Z" fill="#151B24" fill-opacity="1"/>
  <rect width="1200" height="800" filter="url(#grain)"/>
</svg>
