<svg xmlns="http://www.w3.org/2000/svg" width="1200" height="800" viewBox="0 0 1200 800">
  <defs>
    <linearGradient id="sky" x1="0" y1="0" x2="0" y2="1">
      <stop offset="0" stop-color="#161A20"/>
      <stop offset="0.55" stop-color="#25303E"/>
      <stop offset="1" stop-color="#4A5A6E"/>
    </linearGradient>
    <radialGradient id="glow" cx="0.69" cy="0.16" r="0.5">
      <stop offset="0" stop-color="#D9A441" stop-opacity="0.55"/>
      <stop offset="1" stop-color="#D9A441" stop-opacity="0"/>
    </radialGradient>
    <filter id="grain">
      <feTurbulence type="fractalNoise" baseFrequency="0.9" numOctaves="2" seed="66" stitchTiles="stitch"/>
      <feColorMatrix type="matrix" values="0 0 0 0 0.93 0 0 0 0 0.9 0 0 0 0 0.85 0 0 0 0.06 0"/>
    </filter>
  </defs>
  <rect width="1200" height="800" fill="url(#sky)"/>
  <rect width="1200" height="800" fill="url(#glow)"/>
  <circle cx="833" cy="126" r="56" fill="#D9A441" opacity="0.85"/>
  <path d="M0,800 L0,260 L120,273 L240,309 L360,335 L480,347 L600,372 L720,427 L840,484 L960,532 L1080,550 L1200,560 L1200,800 Z" fill="#3A4656" fill-opacity="0.9"/>
  <path d="M0,800 L0,386 L60,380 L120,397 L180,413 L240,427 L300,438 L360,450 L420,454 L480,459 L540,468 L600,481 L660,503 L720,527 L780,551 L840,576 L900,601 L960,617 L1020,625 L1080,632 L1140,635 L1200,640 L1200,800 Z" fill="#2C3644" fill-opacity="0.95"/>
  <path d="M0,800 L0,510 L30,500 L60,505 L90,517 L120,519 L150,519 L180,532 L210,539 L240,544 L270,548 L300,553 L330,558 L360,562 L390,564 L420,566 L450,570 L480,570 L510,573 L540,578 L570,582 L600,588 L630,596 L660,607 L690,618 L720,627 L750,637 L780,646 L810,657 L840,667 L870,678 L900,688 L930,696 L960,701 L990,705 L1020,708 L1050,708 L1080,713 L1110,713 L1140,716 L1170,718 L1200,720 L1200,800 Z" fill="#1F2733" fill-opacity="1"/>
  <path d="M0,800 L0,618 L15,614 L30,610 L46,612 L61,614 L76,620 L91,625 L106,628 L122,626 L137,624 L152,626 L167,632 L182,638 L197,641 L213,643 L228,646 L243,648 L258,650 L273,651 L289,653 L304,656 L319,658 L334,660 L349,661 L365,664 L380,664 L395,665 L410,666 L425,667 L441,670 L456,671 L471,669 L486,671 L501,671 L516,673 L532,675 L547,677 L562,680 L577,681 L592,684 L608,686 L623,689 L638,693 L653,697 L668,702 L684,708 L699,712 L714,715 L729,720 L744,724 L759,728 L775,732 L790,736 L805,740 L820,745 L835,750 L851,754 L866,760 L881,764 L896,768 L911,772 L927,776 L942,779 L957,781 L972,783 L987,786 L1003,787 L1018,790 L1033,789 L1048,786 L1063,790 L1078,794 L1094,794 L1109,795 L1124,794 L1139,795 L1154,796 L1170,796 L1185,798 L1200,800 L1200,800 Z" fill="#151B24" fill-opacity="1"/>
  <rect width="1200" height="800" filter="url(#grain)"/>
</svg>
