<svg xmlns="http://www.w3.org/2000/svg" width="1200" height="800" viewBox="0 0 1200 800">
  <defs>
    <linearGradient id="sky" x1="0" y1="0" x2="0" y2="1">
      <stop offset="0" stop-color="#161A20"/>
      <stop offset="0.55" stop-color="#25303E"/>
      <stop offset="1" stop-color="#4A5A6E"/>
    </linearGradient>
    <radialGradient id="glow" cx="0.30" cy="0.19" r="0.5">
      <stop offset="0" stop-color="#D9A441" stop-opacity="0.55"/>
      <stop offset="1" stop-color="#D9A441" stop-opacity="0"/>
    </radialGradient>
    <filter id="grain">
      <feTurbulence type="fractalNoise" baseFrequency="0.9" numOctaves="2" seed="42" stitchTiles="stitch"/>
      <feColorMatrix type="matrix" values="0 0 0 0 0.93 0 0 0 0 0.9 0 0 0 0 0.85 0 0 0 0.06 0"/>
    </filter>
  </defs>
  <rect width="1200" height="800" fill="url(#sky)"/>
  <rect width="1200" height="800" fill="url(#glow)"/>
  <circle cx="362" cy="151" r="56" fill="#D9A441" opacity="0.85"/>
  <path d="M0,800 L0,560 L92,514 L185,472 L277,423 L369,375 L462,319 L554,314 L646,323 L738,347 L831,369 L923,331 L1015,305 L1108,269 L1200,260 L1200,800 Z" fill="#3A4656" fill-opacity="0.9"/>
  <path d="M0,800 L0,640 L48,620 L96,600 L144,582 L192,563 L240,541 L288,522 L336,499 L384,479 L432,451 L480,431 L528,426 L576,427 L624,432 L672,434 L720,444 L768,456 L816,472 L864,474 L912,453 L960,442 L1008,438 L1056,419 L1104,413 L1152,388 L1200,380 L1200,800 Z" fill="#2C3644" fill-opacity="0.95"/>
  <path d="M0,800 L0,720 L24,710 L49,703 L73,696 L98,686 L122,678 L147,671 L171,664 L196,655 L220,647 L245,636 L269,627 L294,620 L318,611 L343,601 L367,589 L392,584 L416,571 L441,560 L465,550 L490,543 L514,538 L539,539 L563,539 L588,540 L612,543 L637,544 L661,544 L686,546 L710,551 L735,554 L759,559 L784,564 L808,569 L833,578 L857,584 L882,580 L906,569 L931,562 L955,553 L980,552 L1004,554 L1029,549 L1053,542 L1078,533 L1102,527 L1127,528 L1151,516 L1176,507 L1200,500 L1200,800 Z" fill="#1F2733" fill-opacity="1"/>
  <path d="M0,800 L0,800 L12,796 L25,791 L37,789 L49,786 L62,783 L74,779 L87,775 L99,771 L111,767 L124,763 L136,761 L148,758 L161,755 L173,751 L186,749 L198,744 L210,741 L223,737 L235,733 L247,728 L260,725 L272,719 L285,719 L297,714 L309,709 L322,706 L334,699 L346,697 L359,690 L371,687 L384,684 L396,683 L408,673 L421,672 L433,664 L445,662 L458,655 L470,653 L482,648 L495,647 L507,646 L520,643 L532,642 L544,644 L557,646 L569,644 L581,644 L594,644 L606,648 L619,648 L631,648 L643,648 L656,648 L668,648 L680,648 L693,650 L705,654 L718,654 L730,656 L742,657 L755,658 L767,661 L779,662 L792,665 L804,668 L816,669 L829,674 L841,678 L854,682 L866,683 L878,683 L891,679 L903,673 L915,670 L928,667 L940,663 L953,658 L965,656 L977,654 L990,655 L1002,658 L1014,657 L1027,655 L1039,652 L1052,649 L1064,646 L1076,642 L1089,638 L1101,634 L1113,633 L1126,636 L1138,634 L1151,631 L1163,624 L1175,616 L1188,616 L1200,610 L1200,800 Z" fill="#151B24" fill-opacity="1"/>
  <rect width="1200" height="800" filter="url(#grain)"/>
</svg>
