<svg xmlns="http://www.w3.org/2000/svg" width="1200" height="800" viewBox="0 0 1200 800">
  <defs>
    <linearGradient id="sky" x1="0" y1="0" x2="0" y2="1">
      <stop offset="0" stop-color="#161A20"/>
      <stop offset="0.55" stop-color="#25303E"/>
      <stop offset="1" stop-color="#4A5A6E"/>
    </linearGradient>
    <radialGradient id="glow" cx="0.52" cy="0.10" r="0.5">
      <stop offset="0" stop-color="#D9A441" stop-opacity="0.55"/>
      <stop offset="1" stop-color="#D9A441" stop-opacity="0"/>
    </radialGradient>
    <filter id="grain">
      <feTurbulence type="fractalNoise" baseFrequency="0.9" numOctaves="2" seed="79" stitchTiles="stitch"/>
      <feColorMatrix type="matrix" values="0 0 0 0 0.93 0 0 0 0 0.9 0 0 0 0 0.85 0 0 0 0.06 0"/>
    </filter>
  </defs>
  <rect width="1200" height="800" fill="url(#sky)"/>
  <rect width="1200" height="800" fill="url(#glow)"/>
  <circle cx="627" cy="83" r="56" fill="#D9A441" opacity="0.85"/>
  <path d="M0,800 L0,560 L109,437 L218,343 L327,316 L436,261 L545,260 L655,322 L764,339 L873,381 L982,376 L1091,426 L1200,450 L1200,800 Z" fill="#3A4656" fill-opacity="0.9"/>
  <path d="M0,800 L0,640 L55,586 L109,542 L164,503 L218,467 L273,440 L327,445 L382,433 L436,401 L491,380 L545,401 L600,426 L655,450 L709,455 L764,464 L818,490 L873,497 L927,485 L982,493 L1036,514 L1091,533 L1145,549 L1200,552 L1200,800 Z" fill="#2C3644" fill-opacity="0.95"/>
  <path d="M0,800 L0,720 L28,697 L56,674 L84,657 L112,637 L140,616 L167,604 L195,589 L223,574 L251,557 L279,551 L307,546 L335,555 L363,557 L391,545 L419,530 L447,518 L474,507 L502,500 L530,508 L558,517 L586,527 L614,539 L642,550 L670,559 L698,562 L726,564 L753,570 L781,571 L809,581 L837,593 L865,600 L893,599 L921,600 L949,589 L977,583 L1005,596 L1033,604 L1060,614 L1088,622 L1116,629 L1144,636 L1172,643 L1200,646 L1200,800 Z" fill="#1F2733" fill-opacity="1"/>
  <path d="M0,800 L0,800 L14,790 L28,780 L42,771 L56,760 L71,753 L85,746 L99,739 L113,729 L127,716 L141,711 L155,704 L169,700 L184,695 L198,687 L212,681 L226,674 L240,669 L254,660 L268,657 L282,654 L296,654 L311,650 L325,654 L339,658 L353,666 L367,659 L381,654 L395,649 L409,641 L424,636 L438,630 L452,626 L466,622 L480,616 L494,610 L508,610 L522,614 L536,617 L551,622 L565,626 L579,628 L593,634 L607,640 L621,644 L635,648 L649,654 L664,659 L678,661 L692,664 L706,664 L720,665 L734,665 L748,668 L762,671 L776,670 L791,672 L805,676 L819,681 L833,684 L847,691 L861,696 L875,697 L889,695 L904,696 L918,696 L932,697 L946,692 L960,687 L974,684 L988,682 L1002,688 L1016,693 L1031,697 L1045,700 L1059,704 L1073,708 L1087,714 L1101,715 L1115,717 L1129,722 L1144,727 L1158,727 L1172,725 L1186,734 L1200,736 L1200,800 Z" fill="#151B24" fill-opacity="1"/>
  <rect width="1200" height="800" filter="url(#grain)"/>
</svg>
