<svg xmlns="http://www.w3.org/2000/svg" width="1200" height="800" viewBox="0 0 1200 800">
  <defs>
    <linearGradient id="sky" x1="0" y1="0" x2="0" y2="1">
      <stop offset="0" stop-color="#161A20"/>
      <stop offset="0.55" stop-color="#25303E"/>
      <stop offset="1" stop-color="#4A5A6E"/>
    </linearGradient>
    <radialGradient id="glow" cx="0.30" cy="0.22" r="0.5">
      <stop offset="0" stop-color="#D9A441" stop-opacity="0.55"/>
      <stop offset="1" stop-color="#D9A441" stop-opacity="0"/>
    </radialGradient>
    <filter id="grain">
      <feTurbulence type="fractalNoise" baseFrequency="0.9" numOctaves="2" seed="62" stitchTiles="stitch"/>
      <feColorMatrix type="matrix" values="0 0 0 0 0.93 0 0 0 0 0.9 0 0 0 0 0.85 0 0 0 0.06 0"/>
    </filter>
  </defs>
  <rect width="1200" height="800" fill="url(#sky)"/>
  <rect width="1200" height="800" fill="url(#glow)"/>
  <circle cx="359" cy="176" r="56" fill="#D9A441" opacity="0.85"/>
  <path d="M0,800 L0,518 L80,524 L160,538 L240,560 L320,547 L400,538 L480,513 L560,522 L640,465 L720,384 L800,338 L880,339 L960,340 L1040,276 L1120,278 L1200,260 L1200,800 Z" fill="#3A4656" fill-opacity="0.9"/>
  <path d="M0,800 L0,603 L40,609 L80,609 L120,603 L160,621 L200,629 L240,640 L280,638 L320,629 L360,616 L400,621 L440,603 L480,600 L520,591 L560,607 L600,595 L640,557 L680,521 L720,488 L760,474 L800,448 L840,456 L880,448 L920,443 L960,449 L1000,431 L1040,394 L1080,387 L1120,395 L1160,401 L1200,380 L1200,800 Z" fill="#2C3644" fill-opacity="0.95"/>
  <path d="M0,800 L0,686 L20,692 L40,691 L60,691 L80,691 L100,688 L120,685 L140,690 L160,701 L180,705 L200,707 L220,708 L240,716 L260,713 L280,715 L300,720 L320,707 L340,698 L360,697 L380,709 L400,701 L420,694 L440,686 L460,682 L480,683 L500,675 L520,676 L540,682 L560,689 L580,689 L600,679 L620,664 L640,647 L660,632 L680,617 L700,602 L720,590 L740,588 L760,578 L780,567 L800,556 L820,560 L840,564 L860,557 L880,557 L900,556 L920,553 L940,553 L960,558 L980,550 L1000,542 L1020,529 L1040,512 L1060,503 L1080,506 L1100,507 L1120,513 L1140,520 L1160,517 L1180,507 L1200,500 L1200,800 Z" fill="#1F2733" fill-opacity="1"/>
  <path d="M0,800 L0,770 L10,774 L20,776 L30,774 L40,774 L50,774 L61,775 L71,774 L81,774 L91,772 L101,772 L111,771 L121,770 L131,769 L141,774 L151,776 L161,783 L171,784 L182,786 L192,788 L202,788 L212,789 L222,789 L232,792 L242,796 L252,798 L262,793 L272,792 L282,795 L292,800 L303,799 L313,792 L323,788 L333,785 L343,780 L353,778 L363,779 L373,786 L383,790 L393,788 L403,783 L413,780 L424,778 L434,775 L444,770 L454,767 L464,767 L474,765 L484,767 L494,764 L504,760 L514,759 L524,761 L534,765 L545,767 L555,770 L565,773 L575,772 L585,773 L595,771 L605,764 L615,757 L625,751 L635,744 L645,737 L655,732 L666,724 L676,716 L686,711 L696,703 L706,698 L716,691 L726,687 L736,686 L746,686 L756,681 L766,677 L776,673 L787,668 L797,663 L807,659 L817,659 L827,662 L837,662 L847,665 L857,659 L867,659 L877,659 L887,659 L897,659 L908,659 L918,656 L928,656 L938,654 L948,655 L958,659 L968,660 L978,658 L988,653 L998,652 L1008,646 L1018,640 L1029,635 L1039,626 L1049,620 L1059,615 L1069,613 L1079,612 L1089,615 L1099,614 L1109,616 L1119,620 L1129,621 L1139,624 L1150,627 L1160,627 L1170,625 L1180,622 L1190,616 L1200,610 L1200,800 Z" fill="#151B24" fill-opacity="1"/>
  <rect width="1200" height="800" filter="url(#grain)"/>
</svg>
