<svg xmlns="http://www.w3.org/2000/svg" width="1200" height="800" viewBox="0 0 1200 800">
  <defs>
    <linearGradient id="sky" x1="0" y1="0" x2="0" y2="1">
      <stop offset="0" stop-color="#161A20"/>
      <stop offset="0.55" stop-color="#25303E"/>
      <stop offset="1" stop-color="#4A5A6E"/>
    </linearGradient>
    <radialGradient id="glow" cx="0.74" cy="0.39" r="0.5">
      <stop offset="0" stop-color="#D9A441" stop-opacity="0.55"/>
      <stop offset="1" stop-color="#D9A441" stop-opacity="0"/>
    </radialGradient>
    <filter id="grain">
      <feTurbulence type="fractalNoise" baseFrequency="0.9" numOctaves="2" seed="88" stitchTiles="stitch"/>
      <feColorMatrix type="matrix" values="0 0 0 0 0.93 0 0 0 0 0.9 0 0 0 0 0.85 0 0 0 0.06 0"/>
    </filter>
  </defs>
  <rect width="1200" height="800" fill="url(#sky)"/>
  <rect width="1200" height="800" fill="url(#glow)"/>
  <circle cx="894" cy="310" r="56" fill="#D9A441" opacity="0.85"/>
  <path d="M0,800 L0,560 L109,477 L218,408 L327,415 L436,348 L545,305 L655,284 L764,297 L873,300 L982,260 L1091,303 L1200,339 L1200,800 Z" fill="#3A4656" fill-opacity="0.9"/>
  <path d="M0,800 L0,640 L55,610 L109,568 L164,540 L218,509 L273,514 L327,515 L382,481 L436,457 L491,434 L545,419 L600,398 L655,401 L709,397 L764,412 L818,425 L873,415 L927,383 L982,380 L1036,402 L1091,418 L1145,435 L1200,449 L1200,800 Z" fill="#2C3644" fill-opacity="0.95"/>
  <path d="M0,800 L0,720 L28,709 L56,695 L84,677 L112,660 L140,644 L167,636 L195,621 L223,610 L251,601 L279,615 L307,626 L335,615 L363,600 L391,587 L419,579 L447,567 L474,556 L502,548 L530,544 L558,535 L586,521 L614,518 L642,515 L670,520 L698,519 L726,517 L753,517 L781,530 L809,541 L837,540 L865,536 L893,532 L921,523 L949,506 L977,500 L1005,503 L1033,511 L1060,521 L1088,523 L1116,534 L1144,543 L1172,549 L1200,560 L1200,800 Z" fill="#1F2733" fill-opacity="1"/>
  <path d="M0,800 L0,800 L14,797 L28,791 L42,784 L56,778 L70,770 L84,763 L98,756 L112,749 L126,741 L140,735 L153,732 L167,728 L181,722 L195,715 L209,712 L223,706 L237,701 L251,698 L265,706 L279,710 L293,715 L307,719 L321,714 L335,710 L349,704 L363,697 L377,692 L391,686 L405,684 L419,679 L433,673 L447,669 L460,665 L474,659 L488,653 L502,652 L516,651 L530,649 L544,646 L558,642 L572,634 L586,629 L600,630 L614,627 L628,623 L642,624 L656,628 L670,628 L684,631 L698,628 L712,626 L726,626 L740,627 L753,626 L767,630 L781,637 L795,643 L809,647 L823,645 L837,646 L851,643 L865,642 L879,641 L893,639 L907,637 L921,631 L935,622 L949,616 L963,610 L977,611 L991,614 L1005,614 L1019,614 L1033,621 L1047,629 L1060,630 L1074,632 L1088,631 L1102,637 L1116,641 L1130,643 L1144,648 L1158,648 L1172,653 L1186,658 L1200,663 L1200,800 Z" fill="#151B24" fill-opacity="1"/>
  <rect width="1200" height="800" filter="url(#grain)"/>
</svg>
