<svg xmlns="http://www.w3.org/2000/svg" width="1200" height="800" viewBox="0 0 1200 800">
  <defs>
    <linearGradient id="sky" x1="0" y1="0" x2="0" y2="1">
      <stop offset="0" stop-color="#1A1612"/>
      <stop offset="0.55" stop-color="#3E2E25"/>
      <stop offset="1" stop-color="#7A4E33"/>
    </linearGradient>
    <radialGradient id="glow" cx="0.65" cy="0.25" r="0.5">
      <stop offset="0" stop-color="#D9A441" stop-opacity="0.55"/>
      <stop offset="1" stop-color="#D9A441" stop-opacity="0"/>
    </radialGradient>
    <filter id="grain">
      <feTurbulence type="fractalNoise" baseFrequency="0.9" numOctaves="2" seed="52" stitchTiles="stitch"/>
      <feColorMatrix type="matrix" values="0 0 0 0 0.93 0 0 0 0 0.9 0 0 0 0 0.85 0 0 0 0.06 0"/>
    </filter>
  </defs>
  <rect width="1200" height="800" fill="url(#sky)"/>
  <rect width="1200" height="800" fill="url(#glow)"/>
  <circle cx="776" cy="203" r="56" fill="#D9A441" opacity="0.85"/>
  <path d="M0,800 L0,560 L171,463 L343,381 L514,260 L686,349 L857,397 L1029,451 L1200,442 L1200,800 Z" fill="#5C3D2E" fill-opacity="0.9"/>
  <path d="M0,800 L0,640 L92,609 L185,556 L277,537 L369,485 L462,432 L554,380 L646,391 L738,457 L831,491 L923,499 L1015,529 L1108,545 L1200,538 L1200,800 Z" fill="#452E24" fill-opacity="0.95"/>
  <path d="M0,800 L0,720 L48,705 L96,694 L144,672 L192,649 L240,649 L288,634 L336,613 L384,590 L432,566 L480,546 L528,522 L576,502 L624,500 L672,511 L720,534 L768,567 L816,584 L864,595 L912,598 L960,602 L1008,618 L1056,627 L1104,641 L1152,641 L1200,635 L1200,800 Z" fill="#30211B" fill-opacity="1"/>
  <path d="M0,800 L0,800 L24,797 L49,787 L73,784 L98,777 L122,768 L147,759 L171,748 L196,739 L220,744 L245,739 L269,733 L294,726 L318,719 L343,708 L367,697 L392,688 L416,678 L441,668 L465,658 L490,650 L514,641 L539,630 L563,622 L588,613 L612,610 L637,611 L661,613 L686,621 L710,631 L735,640 L759,655 L784,668 L808,679 L833,683 L857,684 L882,693 L906,698 L931,695 L955,698 L980,698 L1004,703 L1029,712 L1053,716 L1078,720 L1102,725 L1127,732 L1151,732 L1176,732 L1200,726 L1200,800 Z" fill="#1E1613" fill-opacity="1"/>
  <rect width="1200" height="800" filter="url(#grain)"/>
</svg>
